<mxfile host="app.diagrams.net" modified="2024-07-27T07:42:43.259Z" agent="Mozilla/5.0 (Windows NT 10.0; Win64; x64) AppleWebKit/537.36 (KHTML, like Gecko) Chrome/126.0.0.0 Safari/537.36 Edg/126.0.0.0" version="24.7.1" etag="zxkPfj7HzWTR4B0k8tQE" type="github">
  <diagram name="Page-1" id="AXtwD7Jq51mVKn2y1dPp">
    <mxGraphModel>
      <root>
        <mxCell id="0" />
        <mxCell id="1" parent="0" />
      </root>
    </mxGraphModel>
  </diagram>
</mxfile>
